<svg width="149" height="40" viewBox="0 0 149 40" fill="none" xmlns="http://www.w3.org/2000/svg">
<path d="M16.667 6.33301C24.2147 6.33318 30.333 12.4522 30.333 20C30.3328 27.5476 24.2146 33.6658 16.667 33.666C9.11921 33.666 3.00018 27.5477 3 20C3 12.4521 9.1191 6.33301 16.667 6.33301Z" stroke="#155EEF" stroke-width="6"/>
<path d="M55.1533 17.0112C55.1533 17.8823 54.9433 18.699 54.5233 19.4612C54.1189 20.2234 53.4733 20.8379 52.5867 21.3045C51.7156 21.7712 50.6111 22.0045 49.2733 22.0045H46.5433V28.2579H43.2767V11.9712H49.2733C50.5333 11.9712 51.6067 12.189 52.4933 12.6245C53.38 13.0601 54.0411 13.659 54.4767 14.4212C54.9278 15.1834 55.1533 16.0468 55.1533 17.0112ZM49.1333 19.3679C50.0356 19.3679 50.7044 19.1657 51.14 18.7612C51.5756 18.3412 51.7933 17.7579 51.7933 17.0112C51.7933 15.4245 50.9067 14.6312 49.1333 14.6312H46.5433V19.3679H49.1333Z" fill="#101828"/>
<path d="M62.2793 28.4679C61.0349 28.4679 59.9149 28.1957 58.9193 27.6512C57.9237 27.0912 57.1382 26.3057 56.5626 25.2945C56.0026 24.2834 55.7226 23.1168 55.7226 21.7945C55.7226 20.4723 56.0104 19.3057 56.586 18.2945C57.1771 17.2834 57.9782 16.5057 58.9893 15.9612C60.0004 15.4012 61.1282 15.1212 62.3726 15.1212C63.6171 15.1212 64.7449 15.4012 65.756 15.9612C66.7671 16.5057 67.5604 17.2834 68.136 18.2945C68.7271 19.3057 69.0226 20.4723 69.0226 21.7945C69.0226 23.1168 68.7193 24.2834 68.1126 25.2945C67.5215 26.3057 66.7126 27.0912 65.686 27.6512C64.6749 28.1957 63.5393 28.4679 62.2793 28.4679ZM62.2793 25.6212C62.8704 25.6212 63.4226 25.4812 63.936 25.2012C64.4649 24.9057 64.8849 24.4701 65.196 23.8945C65.5071 23.319 65.6626 22.619 65.6626 21.7945C65.6626 20.5657 65.336 19.6245 64.6826 18.9712C64.0449 18.3023 63.2593 17.9679 62.326 17.9679C61.3926 17.9679 60.6071 18.3023 59.9693 18.9712C59.3471 19.6245 59.036 20.5657 59.036 21.7945C59.036 23.0234 59.3393 23.9723 59.946 24.6412C60.5682 25.2945 61.346 25.6212 62.2793 25.6212Z" fill="#101828"/>
<path d="M73.7522 10.9912V28.2579H70.4855V10.9912H73.7522Z" fill="#101828"/>
<path d="M88.413 15.3312L80.4097 34.3712H76.933L79.733 27.9312L74.553 15.3312H78.2163L81.553 24.3612L84.9363 15.3312H88.413Z" fill="#101828"/>
<path d="M105.294 15.1445C106.881 15.1445 108.156 15.6345 109.121 16.6145C110.101 17.579 110.591 18.9323 110.591 20.6745V28.2579H107.324V21.1179C107.324 20.1068 107.067 19.3368 106.554 18.8079C106.041 18.2634 105.341 17.9912 104.454 17.9912C103.567 17.9912 102.859 18.2634 102.331 18.8079C101.817 19.3368 101.561 20.1068 101.561 21.1179V28.2579H98.2939V21.1179C98.2939 20.1068 98.0373 19.3368 97.5239 18.8079C97.0106 18.2634 96.3106 17.9912 95.4239 17.9912C94.5217 17.9912 93.8062 18.2634 93.2773 18.8079C92.7639 19.3368 92.5073 20.1068 92.5073 21.1179V28.2579H89.2406V15.3312H92.5073V16.8945C92.9273 16.3501 93.4639 15.9223 94.1173 15.6112C94.7862 15.3001 95.5173 15.1445 96.3106 15.1445C97.3217 15.1445 98.2239 15.3623 99.0173 15.7979C99.8106 16.2179 100.425 16.8245 100.861 17.6179C101.281 16.8712 101.887 16.2723 102.681 15.8212C103.489 15.3701 104.361 15.1445 105.294 15.1445Z" fill="#101828"/>
<path d="M111.917 21.7479C111.917 20.4412 112.174 19.2823 112.687 18.2712C113.216 17.2601 113.924 16.4823 114.81 15.9379C115.713 15.3934 116.716 15.1212 117.82 15.1212C118.785 15.1212 119.625 15.3157 120.34 15.7045C121.072 16.0934 121.655 16.5834 122.09 17.1745V15.3312H125.38V28.2579H122.09V26.3679C121.67 26.9745 121.087 27.4801 120.34 27.8845C119.609 28.2734 118.762 28.4679 117.797 28.4679C116.708 28.4679 115.713 28.1879 114.81 27.6279C113.924 27.0679 113.216 26.2823 112.687 25.2712C112.174 24.2445 111.917 23.0701 111.917 21.7479ZM122.09 21.7945C122.09 21.0012 121.935 20.3245 121.624 19.7645C121.313 19.189 120.893 18.7534 120.364 18.4579C119.835 18.1468 119.267 17.9912 118.66 17.9912C118.054 17.9912 117.494 18.139 116.98 18.4345C116.467 18.7301 116.047 19.1657 115.72 19.7412C115.409 20.3012 115.254 20.9701 115.254 21.7479C115.254 22.5257 115.409 23.2101 115.72 23.8012C116.047 24.3768 116.467 24.8201 116.98 25.1312C117.509 25.4423 118.069 25.5979 118.66 25.5979C119.267 25.5979 119.835 25.4501 120.364 25.1545C120.893 24.8434 121.313 24.4079 121.624 23.8479C121.935 23.2723 122.09 22.5879 122.09 21.7945Z" fill="#101828"/>
<path d="M131.441 18.0145V24.2679C131.441 24.7034 131.542 25.0223 131.744 25.2245C131.962 25.4112 132.32 25.5045 132.818 25.5045H134.334V28.2579H132.281C129.528 28.2579 128.151 26.9201 128.151 24.2445V18.0145H126.611V15.3312H128.151V12.1345H131.441V15.3312H134.334V18.0145H131.441Z" fill="#101828"/>
<path d="M143.031 15.1445C144.01 15.1445 144.882 15.3623 145.644 15.7979C146.406 16.2179 146.997 16.8479 147.417 17.6879C147.853 18.5123 148.071 19.5079 148.071 20.6745V28.2579H144.804V21.1179C144.804 20.0912 144.547 19.3057 144.034 18.7612C143.521 18.2012 142.821 17.9212 141.934 17.9212C141.032 17.9212 140.316 18.2012 139.787 18.7612C139.274 19.3057 139.017 20.0912 139.017 21.1179V28.2579H135.751V10.9912H139.017V16.9412C139.437 16.3812 139.997 15.9457 140.697 15.6345C141.397 15.3079 142.175 15.1445 143.031 15.1445Z" fill="#101828"/>
</svg>
