<svg width="169" height="40" viewBox="0 0 169 40" fill="none" xmlns="http://www.w3.org/2000/svg">
<path fill-rule="evenodd" clip-rule="evenodd" d="M0 19.9998C11.653 19.9998 18.3333 13.3195 18.3333 1.6665C18.3333 13.3195 25.0137 19.9998 36.6667 19.9998C25.0137 19.9998 18.3333 26.6802 18.3333 38.3332C18.3333 26.6802 11.653 19.9998 0 19.9998Z" fill="#101828"/>
<path d="M43.9083 28.2575L50.3083 10.7575H53.9083L60.3083 28.2575H56.9083L55.5083 24.2075H48.6833L47.2583 28.2575H43.9083ZM49.5583 21.7075H54.6333L52.0833 14.4325L49.5583 21.7075Z" fill="#101828"/>
<path d="M66.7267 28.5575C65.46 28.5575 64.3434 28.2825 63.3767 27.7325C62.41 27.1825 61.6434 26.4159 61.0767 25.4325C60.5267 24.4492 60.2517 23.3242 60.2517 22.0575C60.2517 20.7909 60.5267 19.6659 61.0767 18.6825C61.6434 17.6992 62.41 16.9325 63.3767 16.3825C64.3434 15.8325 65.46 15.5575 66.7267 15.5575C68.31 15.5575 69.6434 15.9742 70.7267 16.8075C71.81 17.6242 72.5017 18.7575 72.8017 20.2075H69.4267C69.26 19.6075 68.9267 19.1409 68.4267 18.8075C67.9434 18.4575 67.3684 18.2825 66.7017 18.2825C65.8184 18.2825 65.0684 18.6159 64.4517 19.2825C63.835 19.9492 63.5267 20.8742 63.5267 22.0575C63.5267 23.2409 63.835 24.1659 64.4517 24.8325C65.0684 25.4992 65.8184 25.8325 66.7017 25.8325C67.3684 25.8325 67.9434 25.6659 68.4267 25.3325C68.9267 24.9992 69.26 24.5242 69.4267 23.9075H72.8017C72.5017 25.3075 71.81 26.4325 70.7267 27.2825C69.6434 28.1325 68.31 28.5575 66.7267 28.5575Z" fill="#101828"/>
<path d="M74.3919 28.2575V15.8575H77.2169L77.4919 17.5325C77.8919 16.9325 78.4169 16.4575 79.0669 16.1075C79.7336 15.7409 80.5003 15.5575 81.3669 15.5575C83.2836 15.5575 84.6419 16.2992 85.4419 17.7825C85.8919 17.0992 86.4919 16.5575 87.2419 16.1575C88.0086 15.7575 88.8419 15.5575 89.7419 15.5575C91.3586 15.5575 92.6003 16.0409 93.4669 17.0075C94.3336 17.9742 94.7669 19.3909 94.7669 21.2575V28.2575H91.5669V21.5575C91.5669 20.4909 91.3586 19.6742 90.9419 19.1075C90.5419 18.5409 89.9169 18.2575 89.0669 18.2575C88.2003 18.2575 87.5003 18.5742 86.9669 19.2075C86.4503 19.8409 86.1919 20.7242 86.1919 21.8575V28.2575H82.9919V21.5575C82.9919 20.4909 82.7836 19.6742 82.3669 19.1075C81.9503 18.5409 81.3086 18.2575 80.4419 18.2575C79.5919 18.2575 78.9003 18.5742 78.3669 19.2075C77.8503 19.8409 77.5919 20.7242 77.5919 21.8575V28.2575H74.3919Z" fill="#101828"/>
<path d="M102.58 28.5575C101.33 28.5575 100.222 28.2909 99.255 27.7575C98.2883 27.2242 97.53 26.4742 96.98 25.5075C96.43 24.5409 96.155 23.4242 96.155 22.1575C96.155 20.8742 96.4217 19.7325 96.955 18.7325C97.505 17.7325 98.255 16.9575 99.205 16.4075C100.172 15.8409 101.305 15.5575 102.605 15.5575C103.822 15.5575 104.897 15.8242 105.83 16.3575C106.763 16.8909 107.488 17.6242 108.005 18.5575C108.538 19.4742 108.805 20.4992 108.805 21.6325C108.805 21.8159 108.797 22.0075 108.78 22.2075C108.78 22.4075 108.772 22.6159 108.755 22.8325H99.33C99.3967 23.7992 99.73 24.5575 100.33 25.1075C100.947 25.6575 101.688 25.9325 102.555 25.9325C103.205 25.9325 103.747 25.7909 104.18 25.5075C104.63 25.2075 104.963 24.8242 105.18 24.3575H108.43C108.197 25.1409 107.805 25.8575 107.255 26.5075C106.722 27.1409 106.055 27.6409 105.255 28.0075C104.472 28.3742 103.58 28.5575 102.58 28.5575ZM102.605 18.1575C101.822 18.1575 101.13 18.3825 100.53 18.8325C99.93 19.2659 99.5467 19.9325 99.38 20.8325H105.555C105.505 20.0159 105.205 19.3659 104.655 18.8825C104.105 18.3992 103.422 18.1575 102.605 18.1575Z" fill="#101828"/>
<path d="M122.953 28.5575C121.187 28.5575 119.67 28.1825 118.403 27.4325C117.137 26.6659 116.162 25.6075 115.478 24.2575C114.795 22.8909 114.453 21.3159 114.453 19.5325C114.453 17.7492 114.795 16.1742 115.478 14.8075C116.162 13.4409 117.137 12.3742 118.403 11.6075C119.67 10.8409 121.187 10.4575 122.953 10.4575C125.053 10.4575 126.77 10.9825 128.103 12.0325C129.453 13.0659 130.295 14.5242 130.628 16.4075H127.103C126.887 15.4575 126.42 14.7159 125.703 14.1825C125.003 13.6325 124.07 13.3575 122.903 13.3575C121.287 13.3575 120.02 13.9075 119.103 15.0075C118.187 16.1075 117.728 17.6159 117.728 19.5325C117.728 21.4492 118.187 22.9575 119.103 24.0575C120.02 25.1409 121.287 25.6825 122.903 25.6825C124.07 25.6825 125.003 25.4325 125.703 24.9325C126.42 24.4159 126.887 23.7075 127.103 22.8075H130.628C130.295 24.6075 129.453 26.0159 128.103 27.0325C126.77 28.0492 125.053 28.5575 122.953 28.5575Z" fill="#101828"/>
<path d="M138.086 28.5575C136.886 28.5575 135.803 28.2825 134.836 27.7325C133.886 27.1825 133.128 26.4242 132.561 25.4575C132.011 24.4742 131.736 23.3409 131.736 22.0575C131.736 20.7742 132.019 19.6492 132.586 18.6825C133.153 17.6992 133.911 16.9325 134.861 16.3825C135.828 15.8325 136.911 15.5575 138.111 15.5575C139.294 15.5575 140.361 15.8325 141.311 16.3825C142.278 16.9325 143.036 17.6992 143.586 18.6825C144.153 19.6492 144.436 20.7742 144.436 22.0575C144.436 23.3409 144.153 24.4742 143.586 25.4575C143.036 26.4242 142.278 27.1825 141.311 27.7325C140.344 28.2825 139.269 28.5575 138.086 28.5575ZM138.086 25.7825C138.919 25.7825 139.644 25.4742 140.261 24.8575C140.878 24.2242 141.186 23.2909 141.186 22.0575C141.186 20.8242 140.878 19.8992 140.261 19.2825C139.644 18.6492 138.928 18.3325 138.111 18.3325C137.261 18.3325 136.528 18.6492 135.911 19.2825C135.311 19.8992 135.011 20.8242 135.011 22.0575C135.011 23.2909 135.311 24.2242 135.911 24.8575C136.528 25.4742 137.253 25.7825 138.086 25.7825Z" fill="#101828"/>
<path d="M146.047 28.2575V15.8575H148.897L149.197 18.1825C149.647 17.3825 150.256 16.7492 151.022 16.2825C151.806 15.7992 152.722 15.5575 153.772 15.5575V18.9325H152.872C152.172 18.9325 151.547 19.0409 150.997 19.2575C150.447 19.4742 150.014 19.8492 149.697 20.3825C149.397 20.9159 149.247 21.6575 149.247 22.6075V28.2575H146.047Z" fill="#101828"/>
<path d="M154.709 33.7575V15.8575H157.559L157.909 17.6325C158.309 17.0825 158.834 16.5992 159.484 16.1825C160.151 15.7659 161.009 15.5575 162.059 15.5575C163.226 15.5575 164.268 15.8409 165.184 16.4075C166.101 16.9742 166.826 17.7492 167.359 18.7325C167.893 19.7159 168.159 20.8325 168.159 22.0825C168.159 23.3325 167.893 24.4492 167.359 25.4325C166.826 26.3992 166.101 27.1659 165.184 27.7325C164.268 28.2825 163.226 28.5575 162.059 28.5575C161.126 28.5575 160.309 28.3825 159.609 28.0325C158.909 27.6825 158.343 27.1909 157.909 26.5575V33.7575H154.709ZM161.384 25.7575C162.401 25.7575 163.243 25.4159 163.909 24.7325C164.576 24.0492 164.909 23.1659 164.909 22.0825C164.909 20.9992 164.576 20.1075 163.909 19.4075C163.243 18.7075 162.401 18.3575 161.384 18.3575C160.351 18.3575 159.501 18.7075 158.834 19.4075C158.184 20.0909 157.859 20.9742 157.859 22.0575C157.859 23.1409 158.184 24.0325 158.834 24.7325C159.501 25.4159 160.351 25.7575 161.384 25.7575Z" fill="#101828"/>
</svg>
