<svg width="150" height="40" viewBox="0 0 150 40" fill="none" xmlns="http://www.w3.org/2000/svg">
<path d="M21.5001 29.8227C18.5834 28.7394 15.5834 28.5728 12.8334 29.3228C10.9168 29.8228 9.08343 30.8228 7.41676 32.0728L6.25008 33.0728L5.91675 33.4061L6.66674 34.0727C6.75008 34.0727 6.75009 34.1561 6.83342 34.2394C7.00009 34.4061 7.16676 34.4894 7.41676 34.6561L7.91674 34.9894L8.41675 34.5728C8.50008 34.4894 8.66675 34.3228 8.83341 34.2394C10.3334 32.9894 12.0001 32.1561 13.7501 31.7394C16.0001 31.1561 18.4167 31.2394 20.8334 32.1561C22.8334 32.9061 26.9168 33.8228 31.8334 31.7394L32.0001 31.6561L32.2501 31.4061C32.2501 31.3228 32.3334 31.3228 32.4168 31.2394C32.8334 30.7394 33.2501 30.2394 33.5834 29.6561L35.2501 27.0728L32.5834 28.5727C28.6667 30.7394 25.0834 31.1561 21.5001 29.8227Z" fill="#155EEF"/>
<path d="M10.0834 20.8228C12.3334 20.2394 14.75 20.3228 17.1667 21.2394C19.8334 22.2394 26.6667 23.6561 34.3334 16.7394L35.5834 15.4894L35.6667 15.4061L36 15.0728L35.8334 14.6561C35.75 14.3228 35.5834 13.9061 35.4167 13.4894L35 12.3228L34.1667 13.1561C34.0834 13.3228 33.9167 13.4061 33.75 13.5728C30.0834 17.3228 24.4167 21.1561 17.9167 18.8228C15 17.7394 12 17.5728 9.25002 18.3228C6.58336 19.0728 4.25002 20.4894 2.08335 22.4894V22.4061L0.833354 23.7394C0.833354 23.8228 0.750036 23.8228 0.666702 23.9061L0.416687 24.1561L0.500025 24.4894C0.583359 24.9061 0.75002 25.3228 0.833354 25.7394L1.33336 27.0728L2.16669 25.9894C2.25003 25.8228 2.41669 25.7394 2.50002 25.5728C4.25002 23.9894 6.66669 21.7394 10.0834 20.8228Z" fill="#155EEF"/>
<path d="M2.00002 19.3229C3.91669 17.3229 6.08334 16.0729 8.41667 15.4063C10.6667 14.8229 13.0833 14.9063 15.5 15.8229C23 18.5729 29.5 14.0729 32.3334 11.6563L33.4167 10.5729L33.8333 10.2396L33.5 9.7396C33.25 9.4896 33.0834 9.15627 32.8334 8.82293L32.3334 8.15625L31.75 8.73959C31.6667 8.82293 31.5 8.98959 31.4167 9.07292C27.9167 12.4063 22.5 15.8229 16.3333 13.4896C13.4167 12.4063 10.4167 12.2396 7.66668 12.9896C5.91668 13.4896 4.25001 14.3229 2.58334 15.4063L0.833333 16.8229C0.666667 16.9896 0.583333 17.0729 0.416667 17.2396L0.250015 17.4063V17.6563C0.166682 18.2396 0.166672 18.8229 0.0833384 19.3229L0 21.4063L1.41668 19.9063C1.58334 19.7396 1.75002 19.4896 2.00002 19.3229Z" fill="#155EEF"/>
<path d="M23.9167 35.4895L23.75 35.9895L23.9167 35.4895C23.6667 35.4062 23.5 35.3228 23.25 35.2395C20.3333 34.1562 17.3333 33.9895 14.5833 34.7395C14 34.9062 13.4167 35.0728 12.8333 35.3228L10.8333 36.2395L10.3333 36.4895L12 37.0729C12.5 37.2395 13 37.4062 13.5 37.5729L13.75 37.6562L14 37.5729C14.25 37.4895 14.5 37.3228 14.75 37.3228C14.9167 37.3228 15.0833 37.2395 15.25 37.1562C17.25 36.6562 19.4167 36.6562 21.75 37.4062C22 37.4895 22.1667 37.5729 22.4167 37.6562L22.8333 37.8228L23.0833 37.7395C23.6667 37.5728 24.3333 37.4062 24.8333 37.1562L27.1667 36.3229L24.75 35.7395C24.5 35.6562 24.1667 35.5729 23.9167 35.4895Z" fill="#155EEF"/>
<path d="M36.6667 18.2393L35.4167 19.4893C35.25 19.6559 35.0834 19.8226 34.9167 19.9893C31.5 23.2393 26 26.7393 19.8334 24.4059C16.9167 23.3226 13.9167 23.1559 11.1667 23.9059C8.58337 24.6559 6.25002 25.9893 4.16668 27.9893L3.08336 29.1559L2.75003 29.5726L3.08336 30.0726C3.33336 30.4059 3.50004 30.6559 3.6667 30.9893L4.16668 31.7393L4.75003 30.9893C4.83336 30.9059 5.00002 30.7393 5.08335 30.6559C7.08335 28.4893 9.25002 27.1559 11.75 26.4893C14 25.9059 16.4167 25.9893 18.8334 26.9059C20.9167 27.6559 23.0834 27.9059 25.25 27.6559C29.0834 27.2393 32.9167 25.0726 35.75 22.6559C35.9167 22.4893 36.0834 22.4059 36.25 22.2393L36.5 21.9893V21.7393C36.5 21.2393 36.5834 20.6559 36.5834 20.1559L36.6667 18.2393Z" fill="#155EEF"/>
<path d="M5.00016 10.5729L4.75017 10.0729L5.00016 10.5729C5.50016 10.3229 6.08352 10.1562 6.58352 9.98958C8.83352 9.40624 11.2502 9.48958 13.6668 10.4062C15.2502 10.9896 16.8335 11.2396 18.5835 11.2396C22.0835 11.2396 25.5835 9.98958 28.8335 7.57292L30.0835 6.57291L30.5002 6.23958L29.7502 5.65623C29.5002 5.40623 29.1668 5.15624 28.8335 4.98958L28.3335 4.65625L27.9168 4.98958C27.7502 5.07291 27.6668 5.23957 27.5002 5.32291C23.0835 8.65624 18.6668 9.57292 14.5002 7.98958C11.5002 6.90625 8.50017 6.65625 5.50017 7.57292C5.25017 7.65625 5.00017 7.73957 4.66683 7.82291L4.50018 7.90624L4.25017 8.15623C4.25017 8.23957 4.16685 8.23958 4.08352 8.32291C3.75018 8.82291 3.3335 9.23959 3.00017 9.73959L1.41684 12.1562L4.00018 10.8229C4.41684 10.8229 4.75016 10.6563 5.00016 10.5729Z" fill="#155EEF"/>
<path d="M11.8333 4.90591L12.0833 4.98925C13.1667 5.40591 14.8333 5.82258 16.9167 5.82258C19.0833 5.82258 21.1667 5.32258 23.25 4.48924L25.8333 3.23924L24.0833 2.65592C23.5833 2.48926 23.0833 2.32259 22.5 2.23926H22.25L22 2.32257C21.75 2.4059 21.5 2.57259 21.25 2.65592C18.75 3.57259 16.25 3.73926 13.8333 3.07259C13.5833 2.98926 13.3333 2.90591 13.0833 2.82258L12.8333 2.73924L12.5833 2.82258C12.0833 2.98924 11.5833 3.15592 11.0833 3.40592L9.16666 4.23925L11.1667 4.82257C11.3333 4.73924 11.5833 4.82258 11.8333 4.90591Z" fill="#155EEF"/>
<path d="M51.0665 28.2575H47.2218L53.08 11.2878H57.7036L63.5535 28.2575H59.7088L55.4581 15.1657H55.3255L51.0665 28.2575ZM50.8262 21.5873H59.9077V24.388H50.8262V21.5873Z" fill="#101828"/>
<path d="M69.0595 11.2878V28.2575H65.5297V11.2878H69.0595Z" fill="#101828"/>
<path d="M78.6568 15.5302V18.1818H70.9923V15.5302H78.6568ZM72.7323 12.481H76.2621V24.3465C76.2621 24.6724 76.3119 24.9266 76.4113 25.1088C76.5107 25.2856 76.6488 25.4099 76.8256 25.4817C77.0079 25.5535 77.2178 25.5894 77.4553 25.5894C77.621 25.5894 77.7868 25.5756 77.9525 25.548C78.1182 25.5149 78.2452 25.49 78.3336 25.4734L78.8888 28.1001C78.712 28.1553 78.4634 28.2188 78.1431 28.2907C77.8227 28.368 77.4332 28.415 76.9747 28.4315C76.124 28.4647 75.3783 28.3514 74.7375 28.0918C74.1023 27.8322 73.6079 27.4289 73.2543 26.882C72.9008 26.3352 72.7268 25.6447 72.7323 24.8105V12.481Z" fill="#101828"/>
<path d="M85.6067 27.3378V15.6048H88.573V27.3378H85.6067ZM81.2234 22.9545V19.9881H92.9563V22.9545H81.2234Z" fill="#101828"/>
<path d="M105.7 16.1683C105.634 15.4999 105.349 14.9806 104.847 14.6105C104.344 14.2404 103.662 14.0553 102.8 14.0553C102.215 14.0553 101.72 14.1382 101.317 14.3039C100.914 14.4641 100.604 14.6878 100.389 14.9751C100.179 15.2623 100.074 15.5882 100.074 15.9528C100.063 16.2566 100.126 16.5218 100.265 16.7483C100.408 16.9748 100.604 17.1709 100.853 17.3366C101.101 17.4968 101.389 17.6376 101.715 17.7592C102.041 17.8752 102.389 17.9746 102.759 18.0575L104.283 18.4221C105.023 18.5878 105.703 18.8087 106.322 19.0849C106.94 19.3611 107.476 19.7009 107.929 20.1041C108.382 20.5074 108.733 20.9824 108.981 21.5293C109.236 22.0762 109.365 22.7031 109.371 23.4102C109.365 24.4487 109.1 25.3491 108.575 26.1114C108.056 26.8682 107.305 27.4565 106.322 27.8764C105.344 28.2907 104.165 28.4978 102.784 28.4978C101.414 28.4978 100.22 28.2879 99.204 27.8681C98.1931 27.4483 97.4031 26.8268 96.8342 26.0037C96.2707 25.1751 95.9752 24.1504 95.9476 22.9296H99.4194C99.4581 23.4986 99.621 23.9737 99.9083 24.3548C100.201 24.7304 100.59 25.0149 101.077 25.2083C101.568 25.3961 102.123 25.49 102.742 25.49C103.35 25.49 103.877 25.4016 104.325 25.2248C104.778 25.0481 105.128 24.8023 105.377 24.4874C105.626 24.1725 105.75 23.8107 105.75 23.4019C105.75 23.0208 105.637 22.7004 105.41 22.4408C105.189 22.1811 104.863 21.9602 104.432 21.7779C104.007 21.5956 103.485 21.4299 102.866 21.2807L101.019 20.8167C99.5879 20.4687 98.4582 19.9246 97.6296 19.1844C96.801 18.4441 96.3895 17.4471 96.395 16.1931C96.3895 15.1657 96.6629 14.268 97.2153 13.5002C97.7732 12.7323 98.5383 12.133 99.5105 11.7021C100.483 11.2712 101.588 11.0558 102.825 11.0558C104.084 11.0558 105.184 11.2712 106.123 11.7021C107.067 12.133 107.802 12.7323 108.327 13.5002C108.852 14.268 109.122 15.1574 109.139 16.1683H105.7Z" fill="#101828"/>
<path d="M115.248 20.8996V28.2575H111.718V11.2878H115.148V17.7757H115.297C115.585 17.0245 116.049 16.4362 116.689 16.0108C117.33 15.58 118.134 15.3645 119.101 15.3645C119.985 15.3645 120.755 15.5579 121.412 15.9445C122.075 16.3257 122.589 16.8753 122.954 17.5935C123.324 18.3061 123.506 19.1595 123.501 20.1538V28.2575H119.971V20.7836C119.976 19.9992 119.777 19.3888 119.374 18.9524C118.976 18.516 118.418 18.2978 117.7 18.2978C117.22 18.2978 116.794 18.4 116.424 18.6043C116.06 18.8087 115.772 19.107 115.563 19.4992C115.358 19.8859 115.253 20.3527 115.248 20.8996Z" fill="#101828"/>
<path d="M126.278 28.2575V15.5302H129.808V28.2575H126.278ZM128.052 13.8896C127.527 13.8896 127.077 13.7156 126.701 13.3676C126.331 13.0141 126.146 12.5915 126.146 12.0998C126.146 11.6137 126.331 11.1967 126.701 10.8487C127.077 10.4951 127.527 10.3184 128.052 10.3184C128.576 10.3184 129.024 10.4951 129.394 10.8487C129.77 11.1967 129.957 11.6137 129.957 12.0998C129.957 12.5915 129.77 13.0141 129.394 13.3676C129.024 13.7156 128.576 13.8896 128.052 13.8896Z" fill="#101828"/>
<path d="M140.742 15.5302V18.1818H131.625V15.5302H140.742ZM133.423 28.2575V14.6105C133.423 13.688 133.603 12.9229 133.962 12.3153C134.326 11.7076 134.823 11.2519 135.453 10.9481C136.083 10.6443 136.798 10.4924 137.599 10.4924C138.141 10.4924 138.635 10.5338 139.082 10.6167C139.535 10.6995 139.872 10.7741 140.093 10.8404L139.463 13.4919C139.325 13.4477 139.154 13.4063 138.95 13.3676C138.751 13.3289 138.547 13.3096 138.337 13.3096C137.817 13.3096 137.456 13.4311 137.251 13.6742C137.047 13.9117 136.945 14.2459 136.945 14.6768V28.2575H133.423Z" fill="#101828"/>
<path d="M148.406 15.5302V18.1818H140.742V15.5302H148.406ZM142.482 12.481H146.011V24.3465C146.011 24.6724 146.061 24.9266 146.161 25.1088C146.26 25.2856 146.398 25.4099 146.575 25.4817C146.757 25.5535 146.967 25.5894 147.205 25.5894C147.37 25.5894 147.536 25.5756 147.702 25.548C147.868 25.5149 147.995 25.49 148.083 25.4734L148.638 28.1001C148.461 28.1553 148.213 28.2188 147.892 28.2907C147.572 28.368 147.183 28.415 146.724 28.4315C145.873 28.4647 145.128 28.3514 144.487 28.0918C143.852 27.8322 143.357 27.4289 143.004 26.882C142.65 26.3352 142.476 25.6447 142.482 24.8105V12.481Z" fill="#101828"/>
</svg>
