<svg width="158" height="40" viewBox="0 0 158 40" fill="none" xmlns="http://www.w3.org/2000/svg">
<path d="M17.9833 3.33301C14.95 3.33301 12.5 5.75323 12.5 8.74967C12.5 11.7231 14.95 14.1433 17.96 14.1663C17.2133 14.1433 16.63 13.544 16.63 12.8064C16.63 12.0688 17.2367 11.4465 18.0067 11.4465C21.2733 11.4465 28.53 11.4465 31.7267 11.4465C33.99 11.4465 35.8333 9.62557 35.8333 7.38977C35.8333 5.15393 33.99 3.33301 31.7267 3.33301L17.9833 3.33301Z" fill="#5720B7"/>
<path d="M11.3167 14.1665C8.28334 14.1665 5.83334 16.5867 5.83334 19.5832C5.83334 22.5566 8.28334 24.9768 11.2933 24.9998C10.5467 24.9768 9.96334 24.3775 9.96334 23.6399C9.96334 22.9023 10.57 22.28 11.34 22.28C14.6067 22.28 21.8634 22.28 25.06 22.28C27.3233 22.28 29.1667 20.4591 29.1667 18.2233C29.1667 15.9874 27.3233 14.1665 25.06 14.1665L11.3167 14.1665Z" fill="#6927DA"/>
<path d="M6.70835 25C3.45834 25 0.833343 27.6064 0.833344 30.8333C0.833344 34.0355 3.45834 36.6418 6.68333 36.6667C5.88334 36.6418 5.25834 35.9965 5.25834 35.2021C5.25834 34.4078 5.90836 33.7376 6.73337 33.7376C10.2333 33.7376 18.0084 33.7376 21.4334 33.7376C23.8583 33.7376 25.8333 31.7766 25.8333 29.3688C25.8333 26.961 23.8583 25 21.4334 25L6.70835 25Z" fill="#7839EE"/>
<path d="M44.15 28.2577V10.7577H55.4V13.7577H47.45V17.9327H54.7V20.9327H47.45V25.2577H55.55V28.2577H44.15Z" fill="#101828"/>
<path d="M56.8428 33.2577V15.8577H59.9428V17.3577H60.3928C60.6761 16.8744 61.1178 16.4494 61.7178 16.0827C62.3178 15.6994 63.1761 15.5077 64.2928 15.5077C65.2928 15.5077 66.2178 15.7577 67.0678 16.2577C67.9178 16.741 68.6011 17.4577 69.1178 18.4077C69.6344 19.3577 69.8928 20.5077 69.8928 21.8577V22.2577C69.8928 23.6077 69.6344 24.7577 69.1178 25.7077C68.6011 26.6577 67.9178 27.3827 67.0678 27.8827C66.2178 28.366 65.2928 28.6077 64.2928 28.6077C63.5428 28.6077 62.9094 28.5161 62.3928 28.3327C61.8928 28.166 61.4844 27.9494 61.1678 27.6827C60.8678 27.3994 60.6261 27.116 60.4428 26.8327H59.9928V33.2577H56.8428ZM63.3428 25.8577C64.3261 25.8577 65.1344 25.5494 65.7678 24.9327C66.4178 24.2994 66.7428 23.3827 66.7428 22.1827V21.9327C66.7428 20.7327 66.4178 19.8244 65.7678 19.2077C65.1178 18.5744 64.3094 18.2577 63.3428 18.2577C62.3761 18.2577 61.5678 18.5744 60.9178 19.2077C60.2678 19.8244 59.9428 20.7327 59.9428 21.9327V22.1827C59.9428 23.3827 60.2678 24.2994 60.9178 24.9327C61.5678 25.5494 62.3761 25.8577 63.3428 25.8577Z" fill="#101828"/>
<path d="M71.5351 28.2577V15.8577H74.6852V28.2577H71.5351ZM73.1102 14.4077C72.5435 14.4077 72.0602 14.2244 71.6602 13.8577C71.2768 13.491 71.0852 13.0077 71.0852 12.4077C71.0852 11.8077 71.2768 11.3244 71.6602 10.9577C72.0602 10.591 72.5435 10.4077 73.1102 10.4077C73.6935 10.4077 74.1768 10.591 74.5602 10.9577C74.9435 11.3244 75.1352 11.8077 75.1352 12.4077C75.1352 13.0077 74.9435 13.491 74.5602 13.8577C74.1768 14.2244 73.6935 14.4077 73.1102 14.4077Z" fill="#101828"/>
<path d="M82.7508 28.6077C81.5508 28.6077 80.4591 28.3577 79.4758 27.8577C78.5091 27.3577 77.7424 26.6327 77.1758 25.6827C76.6091 24.7327 76.3258 23.5827 76.3258 22.2327V21.8827C76.3258 20.5327 76.6091 19.3827 77.1758 18.4327C77.7424 17.4827 78.5091 16.7577 79.4758 16.2577C80.4591 15.7577 81.5508 15.5077 82.7508 15.5077C83.9341 15.5077 84.9508 15.716 85.8008 16.1327C86.6508 16.5494 87.3341 17.1244 87.8508 17.8577C88.3841 18.5744 88.7341 19.391 88.9008 20.3077L85.8508 20.9577C85.7841 20.4577 85.6341 20.0077 85.4008 19.6077C85.1674 19.2077 84.8341 18.891 84.4008 18.6577C83.9841 18.4244 83.4591 18.3077 82.8258 18.3077C82.1924 18.3077 81.6174 18.4494 81.1008 18.7327C80.6008 18.9994 80.2008 19.4077 79.9008 19.9577C79.6174 20.491 79.4758 21.1494 79.4758 21.9327V22.1827C79.4758 22.966 79.6174 23.6327 79.9008 24.1827C80.2008 24.7161 80.6008 25.1244 81.1008 25.4077C81.6174 25.6744 82.1924 25.8077 82.8258 25.8077C83.7758 25.8077 84.4924 25.566 84.9758 25.0827C85.4758 24.5827 85.7924 23.9327 85.9258 23.1327L88.9758 23.8577C88.7591 24.741 88.3841 25.5494 87.8508 26.2827C87.3341 26.9994 86.6508 27.566 85.8008 27.9827C84.9508 28.3994 83.9341 28.6077 82.7508 28.6077Z" fill="#101828"/>
<path d="M95.0492 28.4577C94.0825 28.4577 93.2325 28.241 92.4992 27.8077C91.7825 27.3577 91.2242 26.741 90.8242 25.9577C90.4242 25.1744 90.2242 24.2744 90.2242 23.2577V15.8577H93.3742V23.0077C93.3742 23.941 93.5992 24.641 94.0492 25.1077C94.5159 25.5744 95.1742 25.8077 96.0242 25.8077C96.9909 25.8077 97.7409 25.491 98.2742 24.8577C98.8075 24.2077 99.0742 23.3077 99.0742 22.1577V15.8577H102.224V28.2577H99.1242V26.6327H98.6742C98.4742 27.0494 98.0992 27.4577 97.5492 27.8577C96.9992 28.2577 96.1659 28.4577 95.0492 28.4577Z" fill="#101828"/>
<path d="M104.479 28.2577V15.8577H107.579V17.2577H108.029C108.213 16.7577 108.513 16.391 108.929 16.1577C109.363 15.9244 109.863 15.8077 110.429 15.8077H111.929V18.6077H110.379C109.579 18.6077 108.921 18.8244 108.404 19.2577C107.888 19.6744 107.629 20.3244 107.629 21.2077V28.2577H104.479Z" fill="#101828"/>
<path d="M113.142 28.2577V15.8577H116.292V28.2577H113.142ZM114.717 14.4077C114.15 14.4077 113.667 14.2244 113.267 13.8577C112.883 13.491 112.692 13.0077 112.692 12.4077C112.692 11.8077 112.883 11.3244 113.267 10.9577C113.667 10.591 114.15 10.4077 114.717 10.4077C115.3 10.4077 115.783 10.591 116.167 10.9577C116.55 11.3244 116.742 11.8077 116.742 12.4077C116.742 13.0077 116.55 13.491 116.167 13.8577C115.783 14.2244 115.3 14.4077 114.717 14.4077Z" fill="#101828"/>
<path d="M124.432 28.6077C123.199 28.6077 122.091 28.3577 121.107 27.8577C120.124 27.3577 119.349 26.6327 118.782 25.6827C118.216 24.7327 117.932 23.591 117.932 22.2577V21.8577C117.932 20.5244 118.216 19.3827 118.782 18.4327C119.349 17.4827 120.124 16.7577 121.107 16.2577C122.091 15.7577 123.199 15.5077 124.432 15.5077C125.666 15.5077 126.774 15.7577 127.757 16.2577C128.741 16.7577 129.516 17.4827 130.082 18.4327C130.649 19.3827 130.932 20.5244 130.932 21.8577V22.2577C130.932 23.591 130.649 24.7327 130.082 25.6827C129.516 26.6327 128.741 27.3577 127.757 27.8577C126.774 28.3577 125.666 28.6077 124.432 28.6077ZM124.432 25.8077C125.399 25.8077 126.199 25.4994 126.832 24.8827C127.466 24.2494 127.782 23.3494 127.782 22.1827V21.9327C127.782 20.766 127.466 19.8744 126.832 19.2577C126.216 18.6244 125.416 18.3077 124.432 18.3077C123.466 18.3077 122.666 18.6244 122.032 19.2577C121.399 19.8744 121.082 20.766 121.082 21.9327V22.1827C121.082 23.3494 121.399 24.2494 122.032 24.8827C122.666 25.4994 123.466 25.8077 124.432 25.8077Z" fill="#101828"/>
<path d="M137.315 28.4577C136.348 28.4577 135.498 28.241 134.765 27.8077C134.048 27.3577 133.49 26.741 133.09 25.9577C132.69 25.1744 132.49 24.2744 132.49 23.2577V15.8577H135.64V23.0077C135.64 23.941 135.865 24.641 136.315 25.1077C136.782 25.5744 137.44 25.8077 138.29 25.8077C139.257 25.8077 140.007 25.491 140.54 24.8577C141.073 24.2077 141.34 23.3077 141.34 22.1577V15.8577H144.49V28.2577H141.39V26.6327H140.94C140.74 27.0494 140.365 27.4577 139.815 27.8577C139.265 28.2577 138.431 28.4577 137.315 28.4577Z" fill="#101828"/>
<path d="M151.895 28.6077C150.278 28.6077 148.953 28.2577 147.92 27.5577C146.887 26.8577 146.262 25.8577 146.045 24.5577L148.945 23.8077C149.062 24.391 149.253 24.8494 149.52 25.1827C149.803 25.516 150.145 25.7577 150.545 25.9077C150.962 26.041 151.412 26.1077 151.895 26.1077C152.628 26.1077 153.17 25.9827 153.52 25.7327C153.87 25.466 154.045 25.141 154.045 24.7577C154.045 24.3744 153.878 24.0827 153.545 23.8827C153.212 23.666 152.678 23.491 151.945 23.3577L151.245 23.2327C150.378 23.066 149.587 22.841 148.87 22.5577C148.153 22.2577 147.578 21.8494 147.145 21.3327C146.712 20.816 146.495 20.1494 146.495 19.3327C146.495 18.0994 146.945 17.1577 147.845 16.5077C148.745 15.841 149.928 15.5077 151.395 15.5077C152.778 15.5077 153.928 15.816 154.845 16.4327C155.762 17.0494 156.362 17.8577 156.645 18.8577L153.72 19.7577C153.587 19.1244 153.312 18.6744 152.895 18.4077C152.495 18.141 151.995 18.0077 151.395 18.0077C150.795 18.0077 150.337 18.116 150.02 18.3327C149.703 18.5327 149.545 18.816 149.545 19.1827C149.545 19.5827 149.712 19.8827 150.045 20.0827C150.378 20.266 150.828 20.4077 151.395 20.5077L152.095 20.6327C153.028 20.7994 153.87 21.0244 154.62 21.3077C155.387 21.5744 155.987 21.966 156.42 22.4827C156.87 22.9827 157.095 23.666 157.095 24.5327C157.095 25.8327 156.62 26.841 155.67 27.5577C154.737 28.2577 153.478 28.6077 151.895 28.6077Z" fill="#101828"/>
</svg>
