<svg width="169" height="40" viewBox="0 0 169 40" fill="none" xmlns="http://www.w3.org/2000/svg">
<path d="M19.9658 21.6667C19.5423 16.5337 15.2422 12.5 10 12.5C4.47715 12.5 0 16.9772 0 22.5C0 28.0228 4.47715 32.5 10 32.5H25V21.6667H19.9658Z" fill="#528BFF"/>
<ellipse cx="24.1667" cy="20" rx="12.5" ry="12.5" fill="#7839EE"/>
<path d="M44.08 20.1665C44.08 18.5021 44.3989 17.0476 45.0367 15.8032C45.69 14.5432 46.6156 13.571 47.8134 12.8865C49.0267 12.2021 50.45 11.8599 52.0834 11.8599C53.3589 11.8599 54.5022 12.1088 55.5133 12.6065C56.5245 13.1043 57.3411 13.8043 57.9634 14.7065C58.5856 15.6088 58.9589 16.651 59.0833 17.8332H55.5834C55.3811 16.8999 54.9534 16.1688 54.3 15.6399C53.6622 15.0954 52.8611 14.8232 51.8967 14.8232C50.59 14.8232 49.5556 15.3132 48.7934 16.2932C48.0311 17.2732 47.65 18.5643 47.65 20.1665C47.65 21.7532 48.0311 23.0443 48.7934 24.0399C49.5556 25.0199 50.59 25.5099 51.8967 25.5099C52.8611 25.5099 53.6622 25.2454 54.3 24.7165C54.9534 24.1721 55.3811 23.4332 55.5834 22.4999H59.0833C58.9589 23.6821 58.5856 24.7243 57.9634 25.6265C57.3411 26.5288 56.5245 27.2288 55.5133 27.7265C54.5022 28.2243 53.3589 28.4732 52.0834 28.4732C50.45 28.4732 49.0267 28.131 47.8134 27.4465C46.6156 26.7621 45.69 25.7976 45.0367 24.5532C44.3989 23.2932 44.08 21.831 44.08 20.1665Z" fill="#101828"/>
<path d="M59.9268 11.9999H63.2168V28.3332H59.9268V11.9999Z" fill="#101828"/>
<path d="M70.4328 28.4732C69.1728 28.4732 68.0606 28.2243 67.0962 27.7265C66.1473 27.2132 65.4084 26.4899 64.8795 25.5565C64.3662 24.6232 64.1095 23.5499 64.1095 22.3365C64.1095 21.1232 64.3662 20.0499 64.8795 19.1165C65.4084 18.1832 66.1473 17.4676 67.0962 16.9699C68.0606 16.4565 69.1728 16.1999 70.4328 16.1999C71.6928 16.1999 72.7973 16.4565 73.7462 16.9699C74.7106 17.4676 75.4495 18.1832 75.9628 19.1165C76.4917 20.0499 76.7562 21.1232 76.7562 22.3365C76.7562 23.5654 76.4917 24.6465 75.9628 25.5799C75.4495 26.4976 74.7106 27.2132 73.7462 27.7265C72.7973 28.2243 71.6928 28.4732 70.4328 28.4732ZM70.4328 25.7899C71.3506 25.7899 72.0739 25.471 72.6028 24.8332C73.1473 24.1954 73.4195 23.3632 73.4195 22.3365C73.4195 21.3099 73.1473 20.4776 72.6028 19.8399C72.0739 19.2021 71.3506 18.8832 70.4328 18.8832C69.5306 18.8832 68.8073 19.2021 68.2628 19.8399C67.7339 20.4776 67.4695 21.3099 67.4695 22.3365C67.4695 23.3632 67.7339 24.1954 68.2628 24.8332C68.8073 25.471 69.5306 25.7899 70.4328 25.7899Z" fill="#101828"/>
<path d="M88.927 16.3399V28.3332H86.0104L85.707 26.8865C85.287 27.3843 84.797 27.7732 84.237 28.0532C83.677 28.3332 82.9926 28.4732 82.1837 28.4732C80.7837 28.4732 79.6404 28.0454 78.7537 27.1899C77.867 26.3188 77.4237 24.8721 77.4237 22.8499V16.3399H80.7137V22.4532C80.7137 23.5421 80.9004 24.3665 81.2737 24.9265C81.6626 25.471 82.2537 25.7432 83.047 25.7432C83.8715 25.7432 84.5093 25.4399 84.9604 24.8332C85.4115 24.211 85.637 23.3476 85.637 22.2432V16.3399H88.927Z" fill="#101828"/>
<path d="M102.274 11.9999V28.3332H99.4044L99.0778 26.6765C98.16 27.8743 96.9156 28.4732 95.3444 28.4732C94.2867 28.4732 93.3378 28.2243 92.4978 27.7265C91.6578 27.2132 90.9967 26.4899 90.5144 25.5565C90.0478 24.6232 89.8144 23.5421 89.8144 22.3132C89.8144 21.0999 90.0478 20.0343 90.5144 19.1165C90.9967 18.1832 91.6578 17.4676 92.4978 16.9699C93.3533 16.4565 94.31 16.1999 95.3678 16.1999C96.9233 16.1999 98.1289 16.7443 98.9844 17.8332V11.9999H102.274ZM96.1144 25.7899C97.0011 25.7899 97.7089 25.4788 98.2378 24.8565C98.7667 24.2188 99.0311 23.3865 99.0311 22.3599C99.0311 21.3176 98.7667 20.4776 98.2378 19.8399C97.7089 19.2021 97.0011 18.8832 96.1144 18.8832C95.2278 18.8832 94.5122 19.2021 93.9678 19.8399C93.4389 20.4776 93.1744 21.3099 93.1744 22.3365C93.1744 23.3632 93.4389 24.1954 93.9678 24.8332C94.5122 25.471 95.2278 25.7899 96.1144 25.7899Z" fill="#101828"/>
<path d="M102.702 11.9999L106.318 11.9765L109.328 23.9232L112.525 11.9999H115.675L118.778 23.9232L121.858 11.9999H125.405L120.878 28.3332H116.842L114.018 17.4832L111.265 28.3332H107.228L102.702 11.9999Z" fill="#101828"/>
<path d="M136.383 25.5565V28.3332H134.703C133.194 28.3332 132.455 27.6799 132.487 26.3732C132.051 27.0576 131.514 27.5788 130.877 27.9365C130.239 28.2943 129.469 28.4732 128.567 28.4732C127.229 28.4732 126.148 28.1699 125.323 27.5632C124.514 26.941 124.11 26.0699 124.11 24.9499C124.11 23.6743 124.577 22.6943 125.51 22.0099C126.459 21.3099 127.828 20.9599 129.617 20.9599H131.997V20.3765C131.997 19.8321 131.794 19.4043 131.39 19.0932C130.985 18.7665 130.441 18.6032 129.757 18.6032C129.15 18.6032 128.652 18.7354 128.263 18.9999C127.874 19.2643 127.641 19.6221 127.563 20.0732H124.39C124.499 18.8443 125.043 17.8954 126.023 17.2265C127.003 16.5421 128.302 16.1999 129.92 16.1999C131.615 16.1999 132.922 16.5732 133.84 17.3199C134.773 18.0665 135.24 19.1476 135.24 20.5632V24.7865C135.24 25.0821 135.302 25.2843 135.427 25.3932C135.551 25.5021 135.745 25.5565 136.01 25.5565H136.383ZM131.997 23.1532H129.593C128.909 23.1532 128.372 23.2932 127.983 23.5732C127.61 23.8376 127.423 24.2188 127.423 24.7165C127.423 25.1365 127.579 25.471 127.89 25.7199C128.217 25.9688 128.652 26.0932 129.197 26.0932C130.052 26.0932 130.729 25.8521 131.227 25.3699C131.724 24.8721 131.981 24.211 131.997 23.3865V23.1532Z" fill="#101828"/>
<path d="M137.493 19.1165H135.509V16.3399H137.493V12.9799H140.783V16.3399H143.513V19.1165H140.783V24.3665C140.783 24.7865 140.868 25.0899 141.039 25.2765C141.226 25.4632 141.529 25.5565 141.949 25.5565H143.653V28.3332H140.923C138.636 28.3332 137.493 27.1899 137.493 24.9032V19.1165Z" fill="#101828"/>
<path d="M155.451 23.7832C155.233 25.2454 154.611 26.3965 153.584 27.2365C152.573 28.061 151.259 28.4732 149.641 28.4732C148.396 28.4732 147.307 28.2243 146.374 27.7265C145.441 27.2132 144.717 26.4899 144.204 25.5565C143.706 24.6232 143.457 23.5499 143.457 22.3365C143.457 21.1076 143.706 20.0343 144.204 19.1165C144.717 18.1832 145.441 17.4676 146.374 16.9699C147.323 16.4565 148.42 16.1999 149.664 16.1999C151.266 16.1999 152.573 16.6121 153.584 17.4365C154.595 18.2454 155.217 19.3732 155.451 20.8199H152.044C151.904 20.2288 151.624 19.7621 151.204 19.4199C150.784 19.0621 150.263 18.8832 149.641 18.8832C148.785 18.8832 148.101 19.2021 147.587 19.8399C147.074 20.4776 146.817 21.3099 146.817 22.3365C146.817 23.3632 147.074 24.1954 147.587 24.8332C148.101 25.471 148.785 25.7899 149.641 25.7899C150.279 25.7899 150.807 25.611 151.227 25.2532C151.663 24.8954 151.943 24.4054 152.067 23.7832H155.451Z" fill="#101828"/>
<path d="M163.135 16.1999C164.55 16.1999 165.709 16.6354 166.611 17.5065C167.529 18.3776 167.988 19.8165 167.988 21.8232V28.3332H164.698V21.9632C164.698 20.9676 164.496 20.2132 164.091 19.6999C163.687 19.171 163.08 18.9065 162.271 18.9065C161.431 18.9065 160.77 19.1943 160.288 19.7699C159.821 20.3454 159.588 21.1465 159.588 22.1732V28.3332H156.298V11.9999H159.588V17.8099C160.475 16.7365 161.657 16.1999 163.135 16.1999Z" fill="#101828"/>
</svg>
