<svg width="166" height="40" viewBox="0 0 166 40" fill="none" xmlns="http://www.w3.org/2000/svg">
<path d="M9.86031 3.73748L14.1507 19.7495V2.14555C14.4909 2.06616 14.8348 1.99625 15.182 1.9361V19.7511L20.0076 1.7417C20.3553 1.77318 20.7003 1.81438 21.0422 1.86501L16.1777 20.0195L25.847 3.27173C26.162 3.41344 26.4723 3.56379 26.7776 3.72247L17.0721 20.5327L30.9278 6.67703C31.1776 6.91327 31.4208 7.15645 31.657 7.40627L17.7993 21.264L34.6115 11.5574C34.7702 11.8627 34.9205 12.173 35.0622 12.4881L18.3185 22.155L36.4681 17.2918C36.5187 17.6337 36.5599 17.9787 36.5913 18.3264L18.5821 23.152L36.3967 23.152C36.3365 23.4992 36.2666 23.843 36.1872 24.1832L18.5794 24.1832L34.5945 28.4745C34.43 28.7894 34.2567 29.099 34.0748 29.4028L18.317 25.1806L31.4784 32.7793C31.2292 33.0355 30.9726 33.2845 30.709 33.5258L17.8025 26.0743L27.5686 35.8404C27.2597 36.0209 26.945 36.1926 26.625 36.3552L17.0723 26.8025L23.3313 37.6434C22.9886 37.7403 22.6418 37.8275 22.2913 37.9046L16.1783 27.3165L19.1256 38.3161C18.8629 38.3273 18.5988 38.3329 18.3333 38.3329C18.2427 38.3329 18.1523 38.3323 18.062 38.331L15.1819 27.5826V38.0631C14.8348 38.003 14.4909 37.9331 14.1507 37.8537V27.5843L11.6113 37.0614C11.2874 36.9337 10.968 36.797 10.6535 36.6517L13.1542 27.3188L8.45979 35.4498C8.16916 35.2637 7.88413 35.0696 7.605 34.8678L12.2625 26.8008L5.73999 33.3233C5.49017 33.0871 5.24698 32.8439 5.01075 32.5941L11.5312 26.0736L3.46649 30.7298C3.2647 30.4507 3.07057 30.1657 2.88441 29.8751L11.0192 25.1785L1.68167 27.6805C1.53633 27.3659 1.39964 27.0465 1.27191 26.7226L10.749 24.1832L0.479507 24.1832C0.400099 23.843 0.330164 23.4992 0.269995 23.152H10.7462L0.00199804 20.2731C0.000667553 20.1821 0 20.0909 0 19.9996C0 19.7349 0.00561207 19.4714 0.0167238 19.2094L11.0177 22.1571L0.428018 16.0431C0.505126 15.6926 0.592267 15.3458 0.689122 15.0031L11.5345 21.2647L1.97778 11.708C2.14037 11.3879 2.31208 11.0732 2.49256 10.7643L12.2626 20.5344L4.80814 7.62285C5.04952 7.35921 5.29851 7.10266 5.55476 6.85353L13.1548 20.0172L8.93191 4.25709C9.23578 4.07523 9.54536 3.90191 9.86031 3.73748Z" fill="#6927DA"/>
<path d="M48.2068 28.2575H52.1968V21.3275H60.1535V17.8042H52.1968V14.8408H60.6668V11.3408H48.2068V28.2575Z" fill="#101828"/>
<path d="M67.4482 18.3175C68.9649 18.3175 70.1782 19.2508 70.1782 21.9342C70.1782 24.5708 69.0116 25.5742 67.4482 25.5742C65.8849 25.5742 64.7182 24.5708 64.7182 21.9342C64.7182 19.2508 65.9316 18.3175 67.4482 18.3175ZM67.4482 15.3308C63.9716 15.3308 60.7982 17.3842 60.7982 21.9342C60.7982 26.4842 63.9716 28.5608 67.4482 28.5608C70.9249 28.5608 74.0982 26.4842 74.0982 21.9342C74.0982 17.3842 70.9249 15.3308 67.4482 15.3308Z" fill="#101828"/>
<path d="M81.4911 15.3308C77.6877 15.3308 75.0744 17.9208 75.0744 21.9108C75.0744 25.9008 77.3611 28.5608 81.4911 28.5608C84.0111 28.5608 87.0211 27.3708 87.8844 23.6375H84.2911C84.0111 24.8275 83.1477 25.5742 81.7244 25.5742C80.3477 25.5742 78.9944 24.6642 78.9944 21.9342C78.9944 19.2508 80.3477 18.3175 81.7244 18.3175C82.8677 18.3175 83.7777 18.8308 84.1277 20.3008H87.7211C86.9744 16.5208 84.1044 15.3308 81.4911 15.3308Z" fill="#101828"/>
<path d="M96.9308 20.4175C92.0541 20.7908 88.5775 21.7942 88.5775 24.8742C88.5775 27.1608 90.5375 28.5608 92.9175 28.5608C94.7141 28.5608 96.2075 28.0708 97.1408 26.7408L97.1875 28.2575H100.967C100.781 27.4642 100.687 25.9942 100.687 24.6175V23.3108L100.734 20.5808C100.804 16.7775 98.7508 15.3075 95.1341 15.3075C91.4008 15.3075 89.1608 17.4075 88.9741 19.7642H92.5675C92.7308 18.5508 93.5708 17.9208 94.8075 17.9208C96.2075 17.9208 96.9308 18.4342 96.9308 19.9275V20.4175ZM97.0241 22.9842C97.0241 25.2942 95.8575 25.9475 94.3175 25.9475C93.3141 25.9475 92.5441 25.4108 92.5441 24.5942C92.5441 23.2408 94.3408 22.9375 97.0241 22.6808V22.9842Z" fill="#101828"/>
<path d="M106.56 11.3408H102.71V28.2575H106.56V11.3408Z" fill="#101828"/>
<path d="M109.015 11.3408V28.2575H113.005V22.4008H115.525C119.911 22.4008 123.201 21.3042 123.201 16.8475C123.201 12.4142 119.911 11.3408 115.525 11.3408H109.015ZM115.641 14.7008C117.508 14.7008 118.978 15.0742 118.978 16.8475C118.978 18.6208 117.508 19.0408 115.641 19.0408H113.005V14.7008H115.641Z" fill="#101828"/>
<path d="M129.965 18.3175C131.482 18.3175 132.695 19.2508 132.695 21.9342C132.695 24.5708 131.528 25.5742 129.965 25.5742C128.402 25.5742 127.235 24.5708 127.235 21.9342C127.235 19.2508 128.448 18.3175 129.965 18.3175ZM129.965 15.3308C126.488 15.3308 123.315 17.3842 123.315 21.9342C123.315 26.4842 126.488 28.5608 129.965 28.5608C133.442 28.5608 136.615 26.4842 136.615 21.9342C136.615 17.3842 133.442 15.3308 129.965 15.3308Z" fill="#101828"/>
<path d="M138.156 15.7042V28.2575H142.029V15.7042H138.156ZM138.156 11.3408V14.4208H142.006V11.3408H138.156Z" fill="#101828"/>
<path d="M148.17 15.7042H144.32V28.2575H148.17V21.8175C148.17 19.4842 148.847 18.4108 150.503 18.4108C152.37 18.4108 152.44 19.8808 152.44 21.6775V28.2575H156.29V20.7208C156.29 17.3142 155.287 15.4242 152.067 15.4242C150.083 15.4242 148.73 16.4275 148.17 17.3608V15.7042Z" fill="#101828"/>
<path d="M158.952 15.7042H156.969V18.4342H158.952V24.7342C158.952 27.6508 160.002 28.2575 163.105 28.2575H165.555V25.4808H164.459C163.175 25.4808 162.802 25.2475 162.802 24.0575V18.4342H165.555V15.7042H162.802V12.2742H158.952V15.7042Z" fill="#101828"/>
</svg>
