<svg width="146" height="40" viewBox="0 0 146 40" fill="none" xmlns="http://www.w3.org/2000/svg">
<path d="M12.315 16.2079C17.1157 13.9119 20.8729 10.0156 23.0297 5.14531C21.6382 3.68421 19.8292 2.64057 17.8811 2.01438L16.8374 1.6665C16.7679 1.80566 16.6983 2.01439 16.6983 2.15355C15.0285 6.88473 11.6192 10.7114 7.0272 12.8683C3.8267 14.399 1.4611 17.182 0.347881 20.5217L0 21.5653C0.139152 21.6349 0.347884 21.7044 0.487037 21.7044C1.80898 22.1915 3.13093 22.8177 4.3833 23.583C6.12271 20.4521 8.90575 17.8082 12.315 16.2079Z" fill="#087443"/>
<path d="M32.4921 16.4863C29.9178 20.3826 26.3694 23.5135 21.9861 25.6008C18.4377 27.2706 15.7243 30.4016 14.4719 34.1587L14.124 35.3415C15.446 36.5243 17.0462 37.4288 18.7856 37.9854L19.8293 38.3333C19.8988 38.1941 19.9684 37.9854 19.9684 37.8462C21.6382 33.115 25.0475 29.2884 29.6395 27.1315C32.84 25.6008 35.2752 22.8178 36.3188 19.4781L36.6667 18.4345C35.2056 18.017 33.8141 17.3212 32.4921 16.4863Z" fill="#16B364"/>
<path d="M11.341 31.7231C13.0804 27.5485 16.2809 24.1393 20.3859 22.1912C24.143 20.3822 27.2739 17.5991 29.4308 14.1899C27.8305 12.6592 26.5086 10.9198 25.5345 8.83252C22.9602 13.5637 18.9248 17.3904 13.9849 19.756C11.1322 21.0779 8.83623 23.374 7.4447 26.157C8.97538 27.6181 10.2278 29.4271 11.2018 31.4448C11.2018 31.4448 11.2714 31.584 11.341 31.7231Z" fill="#099250"/>
<path d="M44.9583 28.3333H56.6833V25.0833H48.7333V10.8333H44.9583V28.3333Z" fill="#101828"/>
<path d="M68.9331 15.7333H65.4331V22.6333C65.4331 24.2333 64.3581 25.4333 62.8331 25.4333C61.4081 25.4333 60.4081 24.3333 60.4081 22.8083V15.7333H56.9331V23.5833C56.9331 26.4583 58.7831 28.5333 61.6081 28.5333C63.3331 28.5333 64.7331 27.7833 65.4331 26.5833V28.3333H68.9331V15.7333Z" fill="#101828"/>
<path d="M70.2333 28.3333H73.7333V21.1833C73.7333 19.5583 74.6583 18.4833 76.1083 18.4833C77.4583 18.4833 78.3083 19.5583 78.3083 21.1833V28.3333H81.8083V21.1833C81.8083 19.5583 82.7333 18.4833 84.1833 18.4833C85.5333 18.4833 86.4083 19.5583 86.4083 21.1833V28.3333H89.8833V20.0833C89.8833 17.5583 88.1083 15.5333 85.3583 15.5333C83.3333 15.5333 81.7583 16.6083 81.1583 17.8333C80.5583 16.3333 79.2833 15.5333 77.3083 15.5333C75.6083 15.5333 74.4083 16.3583 73.7333 17.5083V15.7333H70.2333V28.3333Z" fill="#101828"/>
<path d="M91.0757 10.2583V13.9333H94.7757V10.2583H91.0757ZM91.1757 28.3333H94.6757V15.7333H91.1757V28.3333Z" fill="#101828"/>
<path d="M95.9804 28.3333H99.4804V21.4333C99.4804 19.8083 100.555 18.6333 102.08 18.6333C103.53 18.6333 104.505 19.7333 104.505 21.2583V28.3333H108.005V20.4833C108.005 17.5833 106.155 15.5333 103.305 15.5333C101.58 15.5333 100.18 16.2583 99.4804 17.4833V15.7333H95.9804V28.3333Z" fill="#101828"/>
<path d="M115.306 28.5333C119.181 28.5333 121.956 25.7833 121.956 22.0333C121.956 18.2833 119.181 15.5333 115.306 15.5333C111.431 15.5333 108.656 18.2833 108.656 22.0333C108.656 25.7833 111.431 28.5333 115.306 28.5333ZM115.306 25.5333C113.431 25.5333 112.156 24.1083 112.156 22.0333C112.156 19.9333 113.431 18.5083 115.306 18.5083C117.181 18.5083 118.456 19.9333 118.456 22.0333C118.456 24.1083 117.181 25.5333 115.306 25.5333Z" fill="#101828"/>
<path d="M134.631 15.7333H131.131V22.6333C131.131 24.2333 130.056 25.4333 128.531 25.4333C127.106 25.4333 126.106 24.3333 126.106 22.8083V15.7333H122.631V23.5833C122.631 26.4583 124.481 28.5333 127.306 28.5333C129.031 28.5333 130.431 27.7833 131.131 26.5833V28.3333H134.631V15.7333Z" fill="#101828"/>
<path d="M140.532 28.5333C143.482 28.5333 145.432 26.9583 145.432 24.5583C145.432 18.8583 138.532 21.7833 138.532 19.2083C138.532 18.4083 139.207 17.9833 140.182 17.9833C141.132 17.9833 142.107 18.5583 142.257 19.6333H145.282C145.157 17.1583 143.107 15.5333 140.082 15.5333C137.507 15.5333 135.582 17.1083 135.582 19.3333C135.582 24.6333 142.357 22.1083 142.357 24.6833C142.357 25.3833 141.607 25.9083 140.532 25.9083C139.232 25.9083 138.357 25.2083 138.232 24.0833H135.232C135.357 26.8083 137.457 28.5333 140.532 28.5333Z" fill="#101828"/>
</svg>
