<svg width="125" height="40" viewBox="0 0 125 40" fill="none" xmlns="http://www.w3.org/2000/svg">
<path d="M27.0793 3.8833C29.5463 8.72034 30.9375 14.1977 30.9375 19.9999C30.9375 25.8023 29.5463 31.2796 27.0792 36.1167C32.7903 33.011 36.6667 26.9582 36.6667 20C36.6667 13.0418 32.7903 6.98902 27.0793 3.8833Z" fill="#0BA5EC"/>
<path d="M18.8353 3.49883C18.0061 2.32412 16.5935 1.69147 15.1768 1.93733C6.55572 3.43343 0 10.9511 0 19.9999C0 29.0487 6.55568 36.5664 15.1767 38.0625C16.5934 38.3084 18.006 37.6758 18.8353 36.501C22.1282 31.8363 24.0625 26.144 24.0625 19.9999C24.0625 13.8558 22.1282 8.16358 18.8353 3.49883Z" fill="#0086C9"/>
<path d="M53.82 28.5375C57.04 28.5375 59.56 27.3942 61.0534 25.4809V19.4842H54.87L54.7534 22.5175L57.2267 22.4009V24.3142C56.3167 25.0375 55.1967 25.3875 54.1234 25.3875C51.44 25.3875 49.7367 23.3575 49.7367 20.1142C49.7367 16.8709 51.3234 14.8409 53.8667 14.8409C55.5467 14.8409 56.7134 15.8442 56.8767 17.4542H61.0534C60.7734 13.9075 57.9967 11.6909 53.8667 11.6909C48.8967 11.6909 45.77 14.9342 45.77 20.1142C45.77 25.2942 48.8734 28.5375 53.82 28.5375Z" fill="#101828"/>
<path d="M71.281 28.2575H74.8043V19.7875C74.8043 16.7309 72.541 15.0042 68.9943 15.0042C65.3543 15.0042 63.021 16.6842 62.7877 19.4142H66.3343C66.451 18.2709 67.3843 17.5709 68.831 17.5709C70.301 17.5709 71.1643 18.3175 71.1643 19.5542V20.4409H68.7843C65.2843 20.4409 63.161 21.9575 63.161 24.6409C63.161 26.9275 64.8177 28.5375 67.3377 28.5375C68.9477 28.5375 70.3243 28.0942 71.211 26.9742L71.281 28.2575ZM66.731 24.4075C66.731 23.4042 67.501 22.9842 68.7143 22.9842L71.1643 22.9609V23.9642C70.4643 25.0375 69.5077 25.6675 68.2477 25.6675C67.221 25.6675 66.731 25.1075 66.731 24.4075Z" fill="#101828"/>
<path d="M77.4808 28.2575H81.1208V10.9909H77.4808V28.2575Z" fill="#101828"/>
<path d="M83.906 28.2575H87.546V15.2842H83.906V28.2575ZM83.766 13.5575H87.6393V10.1509H83.766V13.5575Z" fill="#101828"/>
<path d="M90.3323 28.2575H93.9723V10.9909H90.3323V28.2575Z" fill="#101828"/>
<path d="M102.894 28.5375C106.534 28.5375 109.008 26.6942 109.311 23.7309H105.671C105.438 24.8275 104.388 25.6209 102.894 25.6209C100.981 25.6209 99.9309 24.1975 99.8142 22.3309H109.358C109.708 17.8275 107.281 15.0042 103.081 15.0042C98.8342 15.0042 96.1509 17.6175 96.1509 21.7709C96.1509 25.9242 98.7409 28.5375 102.894 28.5375ZM100.094 19.8342C100.538 18.5042 101.494 17.8275 103.058 17.8275C104.504 17.8275 105.554 18.6442 105.648 19.8342H100.094Z" fill="#101828"/>
<path d="M117.59 28.5375C121.743 28.5375 124.24 25.9942 124.24 21.7709C124.24 17.5475 121.743 15.0042 117.59 15.0042C113.437 15.0042 110.917 17.5475 110.917 21.7709C110.917 25.9942 113.437 28.5375 117.59 28.5375ZM114.557 21.7709C114.557 19.3675 115.7 17.9442 117.59 17.9442C119.457 17.9442 120.6 19.3675 120.6 21.7709C120.6 24.1742 119.457 25.5975 117.59 25.5975C115.7 25.5975 114.557 24.1742 114.557 21.7709Z" fill="#101828"/>
</svg>
