<svg width="1440" height="598" viewBox="0 0 1440 598" fill="none" xmlns="http://www.w3.org/2000/svg">
<g clip-path="url(#clip0_163_1999)">
<path opacity="0.6" d="M-345 -828.13H7.86111L-108.694 -711.574H-345V-709.435L-344.636 -709.799H-110.478L-227.034 -593.243H-345V-591.468H-227.034L-110.478 -474.911H-345L-345 236.87H-227.034L-110.478 353.426H-345V355.565L-228.808 471.757H-345V473.532H-227.034L-110.478 590.089H-345L-345 1301H10.8875V948.136L127.443 1064.69V1301H129.582L129.218 1300.64V1066.48L245.773 1183.03V1301H247.548V1183.03L364.104 1066.48V1301H365.879V1066.48L482.434 1183.03V1301H484.209V1184.81L600.409 1301H602.548V1066.48L719.104 1183.03V1301L1784.99 1301V590.107H1550.47L1667.02 473.55H1784.99V471.775H1667.02L1550.47 355.219H1784.63L1784.99 355.583V353.444H1548.69L1432.14 236.887L1785 236.887V-474.894H1667.03L1666.67 -475.257L1666.31 -474.894H1550.48L1667.03 -591.45H1785V-593.225H1668.81L1785 -709.417V-711.556H1550.48L1667.03 -828.113H1785V-829H719.113L719.113 -476.136L602.557 -592.692V-828.991H600.418L600.782 -828.627V-594.467L484.227 -711.024V-828.991H482.452V-711.024L365.896 -594.467V-828.991H364.121V-594.467L247.566 -711.024V-828.991H245.791V-712.799L129.6 -828.991H127.461V-594.467L10.9053 -711.024V-828.991H-345V-828.104V-828.13ZM-225.409 -592.346L-107.966 -709.79H9.11249V-474.894H-107.966L-225.409 -592.337V-592.346ZM-106.192 -711.565L9.11249 -826.87V-711.565H-106.192ZM1665.78 -1.04443L1549.23 115.512V-118.648L1665.78 -235.204V-1.04443ZM1429.11 470.515L1312.56 353.959V118.024L1429.11 1.46729V470.515ZM1665.78 709.698V943.858L1549.23 827.302V593.142L1665.78 709.698ZM957.034 1181.78L840.478 1065.22H1074.64L1191.19 1181.78H957.034ZM720.888 948.145L836.192 1063.45H720.888V948.145ZM482.966 945.11H247.034L130.478 828.553H601.306L717.861 945.11H483.703L483.339 944.746L482.975 945.11H482.966ZM-109.218 593.133L-109.218 827.293L-225.773 943.849L-225.773 709.689L-109.218 593.133ZM-225.773 117.287L-225.773 -116.873L-109.218 -0.31665L-109.218 233.843L-225.773 117.287ZM839.227 -473.651L955.782 -590.207L955.782 -356.047L839.227 -239.491V-473.651ZM956.67 -354.432L1074.11 -236.988V-119.908H839.218V-236.988L956.661 -354.432H956.67ZM1548.7 -473.136H1664.53L1430.9 -239.5V-473.136L1547.98 -473.136L1548.34 -472.772L1548.7 -473.136ZM1429.11 -1.05322L1311.67 116.391L1194.23 -1.05322V-118.133H1429.12V-1.05322H1429.11ZM1310.78 118.015V352.175L1194.23 235.618V1.45837L1310.78 118.015ZM1547.45 1063.96L1430.9 1180.51V711.464L1547.45 828.021V1063.96ZM1195.48 946.876H1429.11V1180.51L1195.48 946.876ZM-106.192 235.104L9.11249 119.799V235.104H-106.192ZM-107.443 -236.979L9.11249 -353.536L9.11249 115.512L-107.443 -1.04443V-236.979ZM247.034 -473.127H482.966L599.522 -356.571H128.694L12.1389 -473.127H246.297L246.661 -472.763L247.025 -473.127H247.034ZM1192.44 -2.81934L1077.14 -118.124H1192.44V-2.81934ZM1192.44 470.515L1075.89 353.959V235.104V-116.873L1192.44 -0.31665V470.515ZM1429.11 708.438H1313.81L1429.11 593.133V708.438ZM1430.89 591.882H1546.19L1430.89 707.187V591.882ZM1429.11 710.213V945.11H1312.03L1194.59 827.666L1312.03 710.222H1429.11V710.213ZM247.034 708.438L130.478 591.882H364.113L599.522 591.882L482.966 708.438H247.034ZM11.2514 472.654L10.8875 472.29V118.024L127.443 1.46729V472.299L10.8875 588.855V473.027L11.2514 472.663V472.654ZM717.852 -238.24H483.694L367.139 -354.796H601.297L717.852 -238.24ZM1192.96 828.544L1309.51 945.101L840.46 945.101L957.016 828.544L1192.95 828.544H1192.96ZM720.879 829.796L836.183 945.101H720.879V829.796ZM838.322 944.728L722.13 828.535H954.513L838.322 944.728ZM719.104 590.089L485.469 590.089L602.025 473.532H837.958L954.513 590.089H719.104ZM127.434 474.784V590.089H12.13L127.434 474.784ZM129.209 590.089V473.009L246.652 355.565L364.095 473.009V590.089H129.2H129.209ZM482.958 -236.473L599.513 -119.917H247.025L246.661 -120.281L246.297 -119.917H130.469L247.025 -236.473H482.958ZM717.852 -236.473L601.661 -120.281L485.469 -236.473H717.852ZM1072.85 -118.142L956.297 -1.58569H485.469L601.661 -117.778L602.025 -118.142H719.104H1072.84H1072.85ZM247.548 353.941V118.006L364.104 1.44946V117.269L363.74 117.633L364.104 117.997V236.852L364.104 470.488L247.548 353.932V353.941ZM717.852 0.189331L601.297 116.746H367.139L483.694 0.189331H717.852ZM483.694 353.417L367.139 236.861H482.958L483.322 237.225L483.685 236.861H719.982H837.949L954.504 353.417L483.677 353.417H483.694ZM365.879 238.112L481.183 353.417H365.879V238.112ZM840.469 236.861H1074.1V470.497L840.469 236.861ZM365.879 235.086V119.781L481.183 235.086H365.879ZM367.13 118.53H599.513L483.322 234.722L367.13 118.53ZM365.879 115.494V-0.325562L366.243 -0.689453L365.879 -1.05322V-118.133H599.513L365.879 115.503V115.494ZM364.104 -2.83716L248.8 -118.142H364.104V-2.83716ZM363.74 -0.689453L247.548 115.503V-116.882L363.74 -0.689453ZM365.879 355.201H482.958L600.401 472.645L482.958 590.089H365.879L365.879 355.192V355.201ZM602.025 471.757L485.469 355.201L719.627 355.201L836.183 471.757H602.025ZM722.13 355.201H956.288L1072.84 471.757H838.685L722.13 355.201ZM1072.84 473.532L956.652 589.725L840.46 473.532H1072.84ZM1074.09 474.784V590.089H958.791L1074.09 474.784ZM719.982 235.086H485.46L602.016 118.53H837.949L954.504 235.086H719.982ZM603.791 116.755L720.346 0.19812H954.504L837.949 116.755H603.791ZM10.8698 -118.142H244.504L10.8698 115.494L10.8698 -118.142ZM245.764 -116.891V117.269L129.209 233.826V-0.334473L245.764 -116.891ZM129.209 236.337L245.764 119.781V353.941L129.209 470.497V236.337ZM957.025 235.086L839.582 117.642L957.025 0.19812H1074.1V235.095H957.025V235.086ZM958.8 -1.58569L1074.1 -116.891V-1.58569H958.8ZM603.8 -119.917L719.104 -235.222V-119.917H603.8ZM364.618 -354.814L481.174 -238.257H247.016L130.46 -354.814H364.618ZM245.401 -237.37L127.958 -119.926H10.8786V-354.823H127.958L245.401 -237.379V-237.37ZM126.183 591.855L10.8786 707.16V591.855H126.183ZM12.1389 708.411L128.33 592.219L244.522 708.411H12.1389ZM1192.96 826.743L958.8 826.743L1075.36 710.186H1309.51L1192.96 826.743ZM1072.85 710.186L956.297 826.743H722.139L838.694 710.186H1072.85ZM720.879 825.491V591.855H954.513L720.879 825.491ZM1075.88 473L1076.24 472.636L1075.88 472.272V356.452L1309.51 590.089H1075.88V473.009V473ZM719.104 -239.518L485.469 -473.154H719.104V-239.518ZM126.183 -356.598H10.8786V-471.903L126.183 -356.598ZM8.73975 117.624L-107.452 233.817L-107.452 1.43176L8.73975 117.624ZM9.10364 707.151L-106.2 591.846H9.10364V707.151ZM8.73975 709.29L-107.452 825.482L-107.452 593.097L8.73975 709.29ZM10.8786 711.429L244.513 945.065H10.8786L10.8786 711.429ZM12.13 710.177H246.288L362.843 826.734H128.685L12.13 710.177ZM365.355 826.734L248.8 710.177H482.958L599.513 826.734H365.355ZM484.573 709.29L602.016 591.846H719.095V826.743H602.016L484.573 709.299V709.29ZM719.095 828.509V943.814L603.791 828.509H719.095ZM1431.23 709.29L1547.43 593.097V825.482L1431.23 709.29ZM1311.28 708.402H840.46L956.652 592.21L957.016 591.846H1075.87H1311.28L1311.64 592.21L1312.01 591.846H1427.83L1311.28 708.402ZM1310.76 588.811L1194.2 472.254V238.094L1310.76 354.651V588.811ZM1312.53 356.426L1428.72 472.618L1312.53 588.811V356.426ZM1429.09 -119.944H1195.45L1429.09 -353.58V-119.944ZM1194.19 -121.195V-355.355L1310.75 -471.911V-237.751L1194.19 -121.195ZM1192.42 -121.195L1076.22 -237.388L1192.42 -353.58V-121.195ZM1191.16 -119.944H1075.86V-235.249L1191.16 -119.944ZM837.416 -119.944H722.112L837.416 -235.249V-119.944ZM-227.557 -473.127V-357.822L-342.861 -473.127H-227.557ZM-225.782 -473.127H9.11249V-356.047L-108.33 -238.604L-225.773 -356.047V-473.127H-225.782ZM-109.227 -236.979V-2.81934L-225.782 -119.376L-225.782 -353.536L-109.227 -236.979ZM9.10364 590.107H-106.2L9.10364 474.802V590.107ZM-225.782 946.361L-109.227 829.805V1063.96L-225.782 1180.52L-225.782 946.361ZM-107.452 1063.96V828.03L9.10364 711.473L9.10364 1180.52L-107.452 1063.96ZM722.139 946.885H837.967L838.33 947.248L838.694 946.885L1192.96 946.885L1309.51 1063.44H838.685L722.13 946.885H722.139ZM1077.14 1065.22H1311.3L1427.85 1181.77H1193.69L1077.14 1065.22ZM1427.85 1183.55L1311.67 1299.75L1195.48 1183.56H1427.86L1427.85 1183.55ZM1548.33 1065.58L1665.77 1183.02V1300.11L1430.88 1300.11V1183.03L1548.32 1065.59L1548.33 1065.58ZM1549.22 1063.96V829.796L1665.77 946.352V1180.52L1549.22 1063.96V1063.96ZM1313.81 590.098L1429.11 474.793V590.098H1313.81ZM1432.14 235.095L1547.44 119.79V235.095L1432.14 235.095ZM1430.89 233.843V-118.133V-236.988L1547.44 -353.545V117.278L1430.89 233.834V233.843ZM1549.22 -121.16V-355.32L1665.77 -471.876V-237.716L1549.22 -121.16ZM1667.55 -471.876L1783.74 -355.683L1667.55 -239.491V-471.876ZM1429.1 -592.719L1428.74 -592.355L1429.1 -591.991L1429.1 -356.056L1312.55 -239.5L1312.55 -710.332L1429.1 -826.888V-592.728V-592.719ZM1310.77 -474.388L1194.22 -357.831L1194.22 -591.991L1310.77 -708.548L1310.77 -474.388ZM1192.44 -591.991L1192.44 -356.056L1075.89 -239.5L1075.89 -708.548L1192.44 -591.991ZM1074.11 -239.5L957.557 -356.056L957.557 -591.991L1074.11 -708.548L1074.11 -239.491V-239.5ZM957.557 -594.503V-826.888L1073.75 -710.695L957.557 -594.503ZM955.782 -592.728L839.227 -476.172L839.227 -710.332L955.782 -826.888V-592.728ZM837.452 -237.725L720.896 -121.169V-236.997L721.26 -237.361L720.896 -237.725L720.896 -591.991L837.452 -708.548L837.452 -237.725ZM-227.548 -355.328L-227.548 115.503L-344.112 -1.04443L-344.112 -471.876L-227.557 -355.32L-227.548 -355.328ZM-344.112 1.46729L-110.478 235.104H-344.112V1.46729ZM-108.703 236.879L-108.339 237.243L-107.975 236.879H9.10364V470.515L-224.531 236.879H-108.703ZM-342.861 355.21H-108.703L7.85223 471.766H-226.297L-342.861 355.21ZM-224.531 473.541H7.85223L-108.339 589.734L-224.531 473.541ZM-344.112 591.882H-110.478L-344.112 825.518V591.882ZM-344.112 828.03L-227.557 711.473L-227.557 1182.3L-344.112 1298.86L-344.112 828.038V828.03ZM-227.557 1184.81V1300.11H-342.861L-227.557 1184.81ZM-225.782 1300.11V1183.03L-108.339 1065.59L9.10364 1183.03V1300.11H-225.782ZM12.1389 946.885H127.443V1062.19L12.1389 946.885ZM129.218 1063.96V946.885H364.113V1063.96L363.749 1064.33L246.67 1181.41L129.227 1063.96H129.218ZM365.888 946.885H481.192L365.888 1062.19V946.885ZM366.251 1064.33L482.443 948.136V1180.52L366.251 1064.33ZM600.782 1298.86L484.227 1182.3V948.145L600.782 1064.7V1298.86ZM485.478 946.885H719.113V1180.52L485.478 946.885ZM720.888 1065.22H837.967L955.409 1182.66L837.967 1300.11H720.888V1065.22ZM840.478 1300.11L957.034 1183.56H1192.97L1309.52 1300.11H840.469H840.478ZM1429.11 1184.81V1300.11H1313.81L1429.11 1184.81ZM1667.56 1300.11V1184.81L1782.86 1300.11H1667.56ZM1667.56 1182.3V711.473L1784.11 828.03V1298.86L1667.56 1182.3V1182.3ZM1784.11 825.518L1550.48 591.882H1784.11V825.518ZM1665.41 472.654L1548.33 589.734L1547.97 590.098H1430.89V473.018L1431.25 472.654L1430.89 472.29V355.21H1547.97L1665.41 472.654ZM1430.89 353.435V238.13L1546.19 353.435H1430.89ZM1549.22 235.104V118.024L1666.66 0.579712L1784.1 118.024V235.104H1549.21H1549.22ZM1784.11 115.512L1667.56 -1.04443V-236.979L1784.11 -353.536V115.521V115.512ZM1784.11 -357.822L1668.81 -473.127H1784.11V-357.822ZM1430.89 -474.902L1430.89 -590.207L1546.19 -474.902L1430.89 -474.902ZM1548.33 -475.266L1432.14 -591.459L1664.52 -591.459L1548.33 -475.266ZM1782.85 -709.79L1666.3 -593.234L1432.14 -593.234L1548.69 -709.79H1782.85ZM1664.52 -828.121L1430.89 -594.485V-828.121H1664.52ZM1427.86 -828.121L1312.56 -712.817V-828.121H1427.86ZM1310.78 -711.042L1193.34 -593.598L1075.9 -711.042V-828.121H1310.79V-711.042H1310.78ZM1074.11 -828.121V-712.817L958.808 -828.121H1074.11ZM720.888 -594.485V-828.121H954.522L720.888 -594.485ZM717.852 -474.894H602.548V-590.198L717.852 -474.894ZM600.773 -591.973V-474.894H365.879V-591.973L366.243 -592.337L483.322 -709.417L600.764 -591.973H600.773ZM364.104 -474.894H248.8L364.104 -590.198V-474.894ZM363.74 -592.337L247.548 -476.145V-708.53L363.74 -592.337ZM129.218 -826.861L245.773 -710.305V-476.145L129.218 -592.701V-826.861ZM244.522 -474.885H10.8875V-708.521L244.522 -474.885Z" fill="url(#paint0_radial_163_1999)"/>
</g>
<defs>
<radialGradient id="paint0_radial_163_1999" cx="0" cy="0" r="1" gradientUnits="userSpaceOnUse" gradientTransform="translate(720 267.533) rotate(-90) scale(829.62 829.613)">
<stop stop-color="#E9EDFC"/>
<stop offset="0.21" stop-color="#77C4DC"/>
<stop offset="0.43" stop-color="#4780C6"/>
<stop offset="1" stop-color="#A4A8F2" stop-opacity="0"/>
</radialGradient>
<clipPath id="clip0_163_1999">
<rect width="2130" height="1427" fill="white" transform="translate(-345 -829)"/>
</clipPath>
</defs>
</svg>
